<svg width="25" height="24" viewBox="0 0 25 24" fill="none" xmlns="http://www.w3.org/2000/svg">
<path fill-rule="evenodd" clip-rule="evenodd" d="M23.0625 12.0633C23.0625 6.26484 18.3609 1.56328 12.5625 1.56328C6.76406 1.56328 2.0625 6.26484 2.0625 12.0633C2.0625 17.3039 5.90156 21.6478 10.9219 22.4362V15.0994H8.25516V12.0633H10.9219V9.75C10.9219 7.1189 12.4898 5.66437 14.888 5.66437C16.0369 5.66437 17.2388 5.86968 17.2388 5.86968V8.4539H15.9141C14.6105 8.4539 14.2027 9.26297 14.2027 10.0945V12.0633H17.1145L16.6495 15.0994H14.2031V22.4372C19.2234 21.6492 23.0625 17.3053 23.0625 12.0633V12.0633Z" fill="white"/>
</svg>
