<svg width="25" height="24" viewBox="0 0 25 24" fill="none" xmlns="http://www.w3.org/2000/svg">
<path d="M12.8125 1.5C7.01406 1.5 2.3125 6.32344 2.3125 12.2672C2.3125 17.025 5.32187 21.0562 9.49375 22.4812C9.55227 22.494 9.61199 22.5002 9.67188 22.5C10.0609 22.5 10.2109 22.2141 10.2109 21.9656C10.2109 21.7078 10.2016 21.0328 10.1969 20.1328C9.84955 20.2142 9.49423 20.2567 9.1375 20.2594C7.11719 20.2594 6.65781 18.6891 6.65781 18.6891C6.17969 17.4469 5.49063 17.1141 5.49063 17.1141C4.57656 16.4719 5.48594 16.4531 5.55625 16.4531H5.56094C6.61563 16.5469 7.16875 17.5687 7.16875 17.5687C7.69375 18.4875 8.39687 18.7453 9.025 18.7453C9.44033 18.737 9.84923 18.6412 10.225 18.4641C10.3188 17.7703 10.5906 17.2969 10.8906 17.025C8.56094 16.7531 6.10938 15.8297 6.10938 11.7047C6.10938 10.5281 6.51719 9.56719 7.1875 8.81719C7.07969 8.54531 6.71875 7.44844 7.29062 5.96719C7.36733 5.94883 7.44618 5.94095 7.525 5.94375C7.90469 5.94375 8.7625 6.08906 10.1781 7.07344C11.8982 6.59218 13.7174 6.59218 15.4375 7.07344C16.8531 6.08906 17.7109 5.94375 18.0906 5.94375C18.1695 5.94095 18.2483 5.94883 18.325 5.96719C18.8969 7.44844 18.5359 8.54531 18.4281 8.81719C19.0984 9.57187 19.5062 10.5328 19.5062 11.7047C19.5062 15.8391 17.05 16.7484 14.7109 17.0156C15.0859 17.3484 15.4234 18.0047 15.4234 19.0078C15.4234 20.4469 15.4094 21.6094 15.4094 21.9609C15.4094 22.2141 15.5547 22.5 15.9437 22.5C16.0067 22.5003 16.0696 22.494 16.1312 22.4812C20.3078 21.0562 23.3125 17.0203 23.3125 12.2672C23.3125 6.32344 18.6109 1.5 12.8125 1.5Z" fill="white"/>
</svg>
