<svg width="25" height="24" viewBox="0 0 25 24" fill="none" xmlns="http://www.w3.org/2000/svg">
<path fill-rule="evenodd" clip-rule="evenodd" d="M20.0273 4.53517C19.2076 3.71539 18.0967 3.25331 16.9373 3.24984H8.18766C7.02832 3.25331 5.91745 3.71539 5.09767 4.53517C4.27789 5.35495 3.81581 6.46582 3.81234 7.62516V16.3748C3.81581 17.5342 4.27789 18.6451 5.09767 19.4648C5.91745 20.2846 7.02832 20.7467 8.18766 20.7502H16.9373C18.0967 20.7467 19.2076 20.2846 20.0273 19.4648C20.8471 18.6451 21.3092 17.5342 21.3127 16.3748V7.62516C21.3092 6.46582 20.8471 5.35495 20.0273 4.53517ZM8.18766 1.5H16.9373C20.3062 1.5 23.0625 4.25625 23.0625 7.62516V16.3748C23.0625 19.7437 20.3062 22.5 16.9373 22.5H8.18766C4.81875 22.5 2.0625 19.7437 2.0625 16.3748V7.62516C2.0625 4.25625 4.81875 1.5 8.18766 1.5ZM17.5207 7.40396C17.7365 7.54818 17.9903 7.62515 18.2498 7.62515C18.4223 7.62552 18.5931 7.59183 18.7526 7.526C18.912 7.46017 19.0568 7.36351 19.1788 7.24156C19.3007 7.11961 19.3974 6.97477 19.4632 6.81536C19.529 6.65596 19.5627 6.48512 19.5623 6.31265C19.5623 6.05306 19.4854 5.79931 19.3411 5.58347C19.1969 5.36763 18.9919 5.1994 18.7521 5.10006C18.5123 5.00072 18.2484 4.97473 17.9938 5.02537C17.7392 5.07602 17.5053 5.20102 17.3218 5.38458C17.1382 5.56813 17.0132 5.802 16.9626 6.0566C16.9119 6.3112 16.9379 6.5751 17.0373 6.81492C17.1366 7.05475 17.3048 7.25974 17.5207 7.40396ZM14.5071 9.08972C13.9315 8.70512 13.2548 8.49984 12.5625 8.49984C11.6345 8.50083 10.7448 8.86992 10.0886 9.52611C9.43242 10.1823 9.06334 11.072 9.06235 12C9.06235 12.6923 9.26763 13.369 9.65223 13.9446C10.0368 14.5202 10.5835 14.9688 11.2231 15.2337C11.8626 15.4986 12.5664 15.568 13.2453 15.4329C13.9243 15.2978 14.548 14.9645 15.0375 14.475C15.527 13.9855 15.8603 13.3618 15.9954 12.6828C16.1305 12.0039 16.0611 11.3001 15.7962 10.6605C15.5313 10.021 15.0827 9.47433 14.5071 9.08972ZM9.64576 7.63478C10.5091 7.0579 11.5242 6.75 12.5625 6.75C13.9549 6.75 15.2902 7.30312 16.2748 8.28769C17.2594 9.27225 17.8125 10.6076 17.8125 12C17.8125 13.0383 17.5046 14.0534 16.9277 14.9167C16.3508 15.7801 15.5309 16.453 14.5716 16.8504C13.6123 17.2477 12.5567 17.3517 11.5383 17.1491C10.5199 16.9465 9.58442 16.4465 8.85019 15.7123C8.11597 14.9781 7.61595 14.0426 7.41338 13.0242C7.21081 12.0058 7.31477 10.9502 7.71213 9.99091C8.10949 9.0316 8.7824 8.21166 9.64576 7.63478Z" fill="white"/>
</svg>
