<svg width="25" height="24" viewBox="0 0 25 24" fill="none" xmlns="http://www.w3.org/2000/svg">
<path d="M21.633 1.5H4.10687C3.14922 1.5 2.3125 2.18906 2.3125 3.13547V20.7005C2.3125 21.652 3.14922 22.5 4.10687 22.5H21.6278C22.5906 22.5 23.3125 21.6464 23.3125 20.7005V3.13547C23.3181 2.18906 22.5906 1.5 21.633 1.5ZM8.82203 19.0045H5.81359V9.65063H8.82203V19.0045ZM7.42188 8.22844H7.40031C6.4375 8.22844 5.81406 7.51172 5.81406 6.61453C5.81406 5.70094 6.45391 5.00109 7.43828 5.00109C8.42266 5.00109 9.025 5.69578 9.04656 6.61453C9.04609 7.51172 8.42266 8.22844 7.42188 8.22844ZM19.817 19.0045H16.8086V13.89C16.8086 12.6647 16.3708 11.8275 15.2823 11.8275C14.4508 11.8275 13.9586 12.39 13.7397 12.938C13.6577 13.1348 13.6356 13.403 13.6356 13.6767V19.0045H10.6272V9.65063H13.6356V10.9523C14.0734 10.3289 14.7573 9.43172 16.3488 9.43172C18.3236 9.43172 19.8175 10.7334 19.8175 13.5398L19.817 19.0045Z" fill="white"/>
</svg>
