<svg width="25" height="24" viewBox="0 0 25 24" fill="none" xmlns="http://www.w3.org/2000/svg">
<path d="M20.1339 5.56219C19.982 5.4837 19.8342 5.39765 19.6909 5.30438C19.2743 5.02896 18.8924 4.70445 18.5533 4.33781C17.7048 3.36703 17.3879 2.38219 17.2712 1.69266H17.2759C17.1784 1.12031 17.2187 0.75 17.2248 0.75H13.3604V15.6928C13.3604 15.8934 13.3604 16.0917 13.352 16.2877C13.352 16.312 13.3497 16.3345 13.3483 16.3608C13.3483 16.3716 13.3483 16.3828 13.3459 16.3941V16.4025C13.3052 16.9386 13.1333 17.4566 12.8454 17.9107C12.5576 18.3648 12.1625 18.7413 11.695 19.0069C11.2077 19.2841 10.6566 19.4295 10.0961 19.4288C8.2956 19.4288 6.83638 17.9606 6.83638 16.1475C6.83638 14.3344 8.2956 12.8663 10.0961 12.8663C10.4369 12.8659 10.7756 12.9196 11.0997 13.0252L11.1043 9.09047C10.1206 8.9634 9.12122 9.04158 8.16921 9.32008C7.2172 9.59858 6.33324 10.0714 5.5731 10.7086C4.90704 11.2873 4.34707 11.9778 3.91841 12.7491C3.75529 13.0303 3.13982 14.1605 3.06529 15.9947C3.01841 17.0358 3.33107 18.1144 3.48013 18.5602V18.5695C3.57388 18.832 3.93716 19.7278 4.52919 20.483C5.00659 21.0887 5.57061 21.6208 6.2031 22.0622V22.0528L6.21247 22.0622C8.08326 23.3334 10.1575 23.25 10.1575 23.25C10.5165 23.2355 11.7193 23.25 13.0853 22.6027C14.6003 21.885 15.4628 20.8158 15.4628 20.8158C16.0138 20.1769 16.4519 19.4488 16.7584 18.6628C17.1081 17.7436 17.2248 16.6411 17.2248 16.2005V8.27297C17.2717 8.30109 17.8961 8.71406 17.8961 8.71406C17.8961 8.71406 18.7956 9.29063 20.199 9.66609C21.2059 9.93328 22.5625 9.98953 22.5625 9.98953V6.15328C22.0872 6.20484 21.122 6.05484 20.1339 5.56219V5.56219Z" fill="white"/>
</svg>
