<svg width="25" height="24" viewBox="0 0 25 24" fill="none" xmlns="http://www.w3.org/2000/svg">
<path d="M24.0625 5.13281C23.2185 5.49954 22.3255 5.74115 21.4117 5.85C22.372 5.28768 23.0942 4.39433 23.4428 3.3375C22.5349 3.8684 21.5432 4.24091 20.5103 4.43906C20.0754 3.98322 19.5522 3.62058 18.9728 3.37319C18.3933 3.12581 17.7696 2.99884 17.1395 3C14.5886 3 12.5242 5.03437 12.5242 7.54219C12.5224 7.89101 12.5624 8.2388 12.6433 8.57813C10.8141 8.49237 9.0229 8.02574 7.38437 7.20809C5.74583 6.39043 4.29601 5.23976 3.12766 3.82969C2.71777 4.52068 2.501 5.30908 2.5 6.1125C2.5 7.6875 3.32172 9.07969 4.5625 9.89531C3.82737 9.87787 3.10731 9.6833 2.46344 9.32813V9.38438C2.46344 11.5875 4.05719 13.4203 6.16656 13.8375C5.7699 13.9432 5.36114 13.9968 4.95062 13.9969C4.65933 13.9974 4.3687 13.9691 4.08297 13.9125C4.66937 15.7172 6.37609 17.0297 8.39781 17.0672C6.75502 18.3332 4.7381 19.0175 2.66406 19.0125C2.29591 19.012 1.92811 18.99 1.5625 18.9469C3.67243 20.2942 6.12505 21.0068 8.62844 21C17.1297 21 21.7741 14.0766 21.7741 8.07188C21.7741 7.875 21.7689 7.67813 21.7595 7.48594C22.661 6.84472 23.4408 6.04786 24.0625 5.13281V5.13281Z" fill="white"/>
</svg>
