<svg width="25" height="24" viewBox="0 0 25 24" fill="none" xmlns="http://www.w3.org/2000/svg">
<path fill-rule="evenodd" clip-rule="evenodd" d="M20.253 4.55157C19.2822 3.58035 18.129 2.81073 16.8596 2.28701C15.5902 1.7633 14.2297 1.49583 12.8566 1.5C7.09375 1.5 2.4025 6.16782 2.40016 11.9063C2.39761 13.7335 2.87926 15.5288 3.79609 17.1094L2.3125 22.5L7.85547 21.053C9.38979 21.8842 11.1073 22.3192 12.8523 22.3186H12.8566C18.6189 22.3186 23.3097 17.6503 23.3125 11.9123C23.316 10.5439 23.0473 9.18834 22.522 7.92466C21.9968 6.66098 21.2255 5.51438 20.253 4.55157V4.55157ZM12.8566 20.5622H12.8528C11.2972 20.5627 9.76989 20.1463 8.42969 19.3566L8.11234 19.1691L4.82312 20.0278L5.70109 16.8361L5.49437 16.508C4.62456 15.1309 4.16371 13.5351 4.16547 11.9063C4.16547 7.13766 8.06594 3.25781 12.8598 3.25781C15.1595 3.25371 17.3667 4.16322 18.9958 5.78631C20.625 7.4094 21.5427 9.61313 21.5472 11.9128C21.5453 16.6819 17.6467 20.5622 12.8566 20.5622V20.5622ZM17.6233 14.0845C17.3622 13.9542 16.0764 13.3252 15.8383 13.2384C15.6002 13.1517 15.4244 13.1081 15.2505 13.3688C15.0766 13.6294 14.5755 14.2125 14.4231 14.3883C14.2708 14.5641 14.1184 14.5833 13.8573 14.453C13.5963 14.3227 12.7539 14.0484 11.7559 13.1625C10.9792 12.473 10.4552 11.6217 10.3028 11.3616C10.1505 11.1014 10.2864 10.9603 10.4172 10.8309C10.5348 10.7142 10.6783 10.5272 10.8091 10.3753C10.9398 10.2234 10.9834 10.1147 11.0702 9.94125C11.1569 9.76782 11.1137 9.61594 11.0486 9.4861C10.9834 9.35625 10.4608 8.0761 10.2433 7.55531C10.0309 7.04813 9.81578 7.11703 9.65547 7.10907C9.50312 7.10157 9.32734 7.09969 9.15438 7.09969C9.02215 7.10313 8.89205 7.1338 8.7722 7.18977C8.65235 7.24574 8.54533 7.32582 8.45781 7.425C8.21828 7.68563 7.54328 8.31563 7.54328 9.59438C7.54328 10.8731 8.48078 12.1106 8.61016 12.2841C8.73953 12.4575 10.4523 15.0839 13.0731 16.2103C13.5598 16.4187 14.057 16.6015 14.5628 16.7578C15.1886 16.9556 15.7581 16.928 16.2081 16.8609C16.7102 16.7864 17.755 16.2319 17.972 15.6244C18.1891 15.0169 18.1895 14.4966 18.1244 14.3883C18.0592 14.28 17.8848 14.2144 17.6233 14.0845V14.0845Z" fill="white"/>
</svg>
