<svg width="25" height="24" viewBox="0 0 25 24" fill="none" xmlns="http://www.w3.org/2000/svg">
<path d="M24.405 6.97453C24.405 4.86516 22.8535 3.16828 20.9363 3.16828C18.3394 3.04687 15.691 3 12.9844 3H12.1407C9.44067 3 6.78754 3.04687 4.19067 3.16875C2.27817 3.16875 0.726603 4.875 0.726603 6.98437C0.609416 8.65266 0.559728 10.3214 0.562541 11.9902C0.557853 13.6589 0.610978 15.3292 0.721916 17.0011C0.721916 19.1105 2.27348 20.8214 4.18598 20.8214C6.9141 20.948 9.71254 21.0042 12.5579 20.9995C15.4079 21.0089 18.1985 20.9495 20.9297 20.8214C22.8469 20.8214 24.3985 19.1105 24.3985 17.0011C24.511 15.3277 24.5625 13.6589 24.5579 11.9855C24.5685 10.3167 24.5175 8.64641 24.405 6.97453ZM10.2657 16.5886V7.37766L17.0625 11.9808L10.2657 16.5886Z" fill="white"/>
</svg>
